<svg width="25" height="24" viewBox="0 0 25 24" fill="none" xmlns="http://www.w3.org/2000/svg">
<g clip-path="url(#clip0_984_16323)">
<path fill-rule="evenodd" clip-rule="evenodd" d="M16.6666 0H14.6666V2H12.6666V4H6.66663V6H4.66663V8H2.66663V10H0.666626V18H2.66663V20H4.66663V22H6.66663V24H18.6666V22H20.6666V20H22.6666V18H24.6666V10H22.6666V8H20.6666V6H18.6666V4H14.6666V2H16.6666V0ZM18.6666 6V8H20.6666V10H22.6666V18H20.6666V20H18.6666V22H6.66663V20H4.66663V18H2.66663V10H4.66663V8H6.66663V6H12.6666V8H9.66663V10H15.6666V8H14.6666V6H18.6666Z" fill="#75797E"/>
</g>
<defs>
<clipPath id="clip0_984_16323">
<rect width="24" height="24" fill="white" transform="translate(0.666626)"/>
</clipPath>
</defs>
</svg>
