<svg width="107" height="107" viewBox="0 0 107 107" fill="none" xmlns="http://www.w3.org/2000/svg">
<rect width="107" height="107" rx="53.5" fill="url(#paint0_linear_710_5711)"/>
<path fill-rule="evenodd" clip-rule="evenodd" d="M51.6667 25H49.3333V33.1667H44.6667V30.8333H42.3333V28.5H33V30.8333H30.6667V33.1667H28.3333V35.5H26V37.8333H28.3333V40.1667H42.3333V37.8333H44.6667V35.5H49.3333V43.6667H47V46H44.6667V50.6667H33V53H30.6667V55.3333H28.3333V57.6667H26V71.6667H28.3333V74H30.6667V76.3333H33V78.6667H44.6667V76.3333H47V74H49.3333V71.6667H51.6667V55.3333H49.3333V53H47V46H49.3333V43.6667H51.6667V32H56.3333V34.3333H58.6667V36.6667H61V46H63.3333V48.3333H65.6667V53H62.1667V55.3333H59.8333V57.6667H57.5V60H55.1667V74H57.5V76.3333H59.8333V78.6667H62.1667V81H73.8333V78.6667H76.1667V76.3333H78.5V74H80.8333V60H78.5V57.6667H76.1667V55.3333H73.8333V53H68V48.3333H65.6667V46H63.3333V36.6667H61V34.3333H58.6667V32H56.3333V29.6667H51.6667V25ZM73.8333 55.3333V57.6667H76.1667V60H78.5V74H76.1667V76.3333H73.8333V78.6667H62.1667V76.3333H59.8333V74H57.5V60H59.8333V57.6667H62.1667V55.3333H73.8333ZM47 53H44.6667H33V55.3333H30.6667V57.6667H28.3333V71.6667H30.6667V74H33V76.3333H44.6667V74H47V71.6667H49.3333V55.3333H47V53ZM44.6667 35.5H42.3333V37.8333H28.3333V35.5H30.6667V33.1667H33V30.8333H42.3333V33.1667H44.6667V35.5Z" fill="white"/>
<path fill-rule="evenodd" clip-rule="evenodd" d="M42.3333 55.333H40V57.6663H42.3333V62.333H44.6667V64.6663H47V62.333H44.6667V57.6663H42.3333V55.333ZM71.5 57.6663H69.1667V59.9997H71.5V64.6663H73.8333V66.9997H76.1667V64.6663H73.8333V59.9997H71.5V57.6663Z" fill="white"/>
<defs>
<linearGradient id="paint0_linear_710_5711" x1="45.5" y1="115" x2="54" y2="-10.5" gradientUnits="userSpaceOnUse">
<stop stop-color="#FF2B40"/>
<stop offset="1" stop-color="#FFB0A5"/>
</linearGradient>
</defs>
</svg>
