<svg width="24" height="24" viewBox="0 0 32 32" fill="inherit" xmlns="http://www.w3.org/2000/svg">
<g clip-path="url(#clip0_1013_39706)">
<path fill-rule="evenodd" clip-rule="evenodd" d="M14.6667 0H13.3333V4.66667H10.6667V3.33333H9.33333V2H4V3.33333H2.66667V4.66667H1.33333V6H0V7.33333H1.33333V8.66667H9.33333V7.33333H10.6667V6H13.3333V10.6667H12V12H10.6667V14.6667H4V16H2.66667V17.3333H1.33333V18.6667H0V26.6667H1.33333V28H2.66667V29.3333H4V30.6667H10.6667V29.3333H12V28H13.3333V26.6667H14.6667V17.3333H13.3333V16H12V12H13.3333V10.6667H14.6667V4H17.3333V5.33333H18.6667V6.66667H20V12H21.3333V13.3333H22.6667V16H20.6667V17.3333H19.3333V18.6667H18V20H16.6667V28H18V29.3333H19.3333V30.6667H20.6667V32H27.3333V30.6667H28.6667V29.3333H30V28H31.3333V20H30V18.6667H28.6667V17.3333H27.3333V16H24V13.3333H22.6667V12H21.3333V6.66667H20V5.33333H18.6667V4H17.3333V2.66667H14.6667V0ZM27.3333 17.3333V18.6667H28.6667V20H30V28H28.6667V29.3333H27.3333V30.6667H20.6667V29.3333H19.3333V28H18V20H19.3333V18.6667H20.6667V17.3333H27.3333ZM12 16H10.6667H4V17.3333H2.66667V18.6667H1.33333V26.6667H2.66667V28H4V29.3333H10.6667V28H12V26.6667H13.3333V17.3333H12V16ZM10.6667 6H9.33333V7.33333H1.33333V6H2.66667V4.66667H4V3.33333H9.33333V4.66667H10.6667V6Z" fill="inherit"/>
<path fill-rule="evenodd" clip-rule="evenodd" d="M9.33333 17.333H8V18.6663H9.33333V21.333H10.6667V22.6663H12V21.333H10.6667V18.6663H9.33333V17.333ZM26 18.6663H24.6667V19.9997H26V22.6663H27.3333V23.9997H28.6667V22.6663H27.3333V19.9997H26V18.6663Z" fill="inherit"/>
</g>
<defs>
<clipPath id="clip0_1013_39706">
<rect width="32" height="32" fill="inherit"/>
</clipPath>
</defs>
</svg>
