<svg width="88" height="88" viewBox="0 0 88 88" fill="none" xmlns="http://www.w3.org/2000/svg">
<path fill-rule="evenodd" clip-rule="evenodd" d="M40.3333 0H36.6667V12.8333H29.3333V9.16667H25.6667V5.5H11V9.16667H7.33333V12.8333H3.66667V16.5H0V20.1667H3.66667V23.8333H25.6667V20.1667H29.3333V16.5H36.6667V29.3333H33V33H29.3333V40.3333H11V44H7.33333V47.6667H3.66667V51.3333H0V73.3333H3.66667V77H7.33333V80.6667H11V84.3333H29.3333V80.6667H33V77H36.6667V73.3333H40.3333V47.6667H36.6667V44H33V33H36.6667V29.3333H40.3333V11H47.6667V14.6667H51.3333V18.3333H55V33H58.6667V36.6667H62.3333V44H56.8333V47.6667H53.1667V51.3333H49.5V55H45.8333V77H49.5V80.6667H53.1667V84.3333H56.8333V88H75.1667V84.3333H78.8333V80.6667H82.5V77H86.1667V55H82.5V51.3333H78.8333V47.6667H75.1667V44H66V36.6667H62.3333V33H58.6667V18.3333H55V14.6667H51.3333V11H47.6667V7.33333H40.3333V0ZM75.1667 47.6667V51.3333H78.8333V55H82.5V77H78.8333V80.6667H75.1667V84.3333H56.8333V80.6667H53.1667V77H49.5V55H53.1667V51.3333H56.8333V47.6667H75.1667ZM33 44H29.3333H11V47.6667H7.33333V51.3333H3.66667V73.3333H7.33333V77H11V80.6667H29.3333V77H33V73.3333H36.6667V47.6667H33V44ZM29.3333 16.5H25.6667V20.1667H3.66667V16.5H7.33333V12.8333H11V9.16667H25.6667V12.8333H29.3333V16.5Z" fill="white"/>
<path fill-rule="evenodd" clip-rule="evenodd" d="M25.6667 47.667H22V51.3337H25.6667V58.667H29.3333V62.3337H33V58.667H29.3333V51.3337H25.6667V47.667ZM71.5 51.3337H67.8333V55.0003H71.5V62.3337H75.1667V66.0003H78.8333V62.3337H75.1667V55.0003H71.5V51.3337Z" fill="white"/>
</svg>
