<svg width="288" height="225" viewBox="0 0 288 225" fill="none" xmlns="http://www.w3.org/2000/svg">
<rect x="146.16" y="56.8799" width="5.75999" height="5.76" fill="#494E53"/>
<rect x="146.16" y="33.8398" width="11.52" height="5.76" fill="#494E53"/>
<rect x="157.681" y="56.8799" width="5.76001" height="5.76" fill="#494E53"/>
<rect x="157.681" y="39.5996" width="5.76001" height="5.76" fill="#494E53"/>
<rect x="151.92" y="45.3594" width="5.75999" height="5.76" fill="#494E53"/>
<rect x="140.4" y="39.5996" width="5.76001" height="17.28" fill="#494E53"/>
<rect x="163.44" y="45.3594" width="5.75999" height="11.52" fill="#494E53"/>
<rect x="151.92" y="62.6396" width="5.75999" height="5.76" fill="#494E53"/>
<rect x="149.04" y="166.32" width="5.75999" height="5.76001" transform="rotate(180 149.04 166.32)" fill="#494E53"/>
<rect x="149.04" y="189.36" width="11.52" height="5.75999" transform="rotate(180 149.04 189.36)" fill="#494E53"/>
<rect x="137.52" y="166.32" width="5.76001" height="5.76001" transform="rotate(180 137.52 166.32)" fill="#494E53"/>
<rect x="137.52" y="183.601" width="5.76001" height="5.76001" transform="rotate(180 137.52 183.601)" fill="#494E53"/>
<rect x="143.28" y="177.841" width="5.75999" height="5.75999" transform="rotate(180 143.28 177.841)" fill="#494E53"/>
<rect x="154.8" y="183.601" width="5.76001" height="17.28" transform="rotate(180 154.8 183.601)" fill="#494E53"/>
<rect x="131.76" y="177.841" width="5.75999" height="11.52" transform="rotate(180 131.76 177.841)" fill="#494E53"/>
<rect x="143.28" y="160.561" width="5.75999" height="5.75999" transform="rotate(180 143.28 160.561)" fill="#494E53"/>
<rect x="195.12" y="54" width="28.8" height="5.76" fill="#494E53"/>
<rect x="223.92" y="59.7598" width="17.28" height="5.76" fill="#494E53"/>
<rect x="241.2" y="65.5195" width="5.76001" height="5.76" fill="#494E53"/>
<rect x="241.2" y="88.5596" width="5.76001" height="5.75999" fill="#494E53"/>
<rect x="195.12" y="82.7998" width="5.76001" height="5.76" fill="#494E53"/>
<rect x="246.96" y="94.3203" width="5.75999" height="5.76" fill="#494E53"/>
<rect x="252.72" y="100.08" width="5.76001" height="5.76" fill="#494E53"/>
<rect x="229.68" y="134.64" width="5.76001" height="5.76001" fill="#494E53"/>
<rect x="206.64" y="107.28" width="5.75999" height="5.76" fill="#494E53"/>
<rect x="208.8" y="140.4" width="20.88" height="5.75999" fill="#494E53"/>
<rect x="252.72" y="117.36" width="5.76001" height="5.75999" fill="#494E53"/>
<rect x="180.72" y="111.6" width="5.75999" height="5.76" fill="#494E53"/>
<rect x="180.72" y="94.3203" width="5.75999" height="5.76" fill="#494E53"/>
<rect x="186.479" y="88.5596" width="14.4" height="5.75999" fill="#494E53"/>
<rect x="241.2" y="123.12" width="11.52" height="5.76" fill="#494E53"/>
<rect x="218.16" y="84.2402" width="11.52" height="5.76" fill="#494E53"/>
<rect x="218.16" y="101.52" width="11.52" height="5.76" fill="#494E53"/>
<rect x="186.479" y="117.36" width="22.32" height="5.75999" fill="#494E53"/>
<rect x="258.479" y="105.84" width="5.75998" height="11.52" fill="#494E53"/>
<rect x="174.96" y="100.08" width="5.75999" height="11.52" fill="#494E53"/>
<rect x="203.04" y="123.12" width="5.76001" height="17.28" fill="#494E53"/>
<rect x="212.4" y="90" width="5.76001" height="17.28" fill="#494E53"/>
<rect x="229.68" y="90" width="5.76001" height="11.52" fill="#494E53"/>
<rect x="235.44" y="123.12" width="5.75999" height="11.52" fill="#494E53"/>
<rect x="246.96" y="71.2803" width="5.75999" height="17.28" fill="#494E53"/>
<rect x="223.92" y="65.5195" width="5.75999" height="18.72" fill="#494E53"/>
<rect x="218.88" y="107.28" width="5.75999" height="33.12" fill="#494E53"/>
<rect x="189.36" y="59.7598" width="5.75999" height="23.04" fill="#494E53"/>
<rect x="212.4" y="78.4805" width="5.76001" height="5.75999" fill="#494E53"/>
<rect x="206.64" y="72" width="5.75999" height="5.76" fill="#494E53"/>
<rect x="200.88" y="65.5195" width="5.75999" height="5.76" fill="#494E53"/>
<rect x="235.44" y="101.52" width="5.75999" height="5.76" fill="#494E53"/>
<rect x="241.2" y="107.28" width="5.76001" height="5.76" fill="#494E53"/>
<rect x="195.12" y="59.7598" width="5.76001" height="5.76" fill="#494E53"/>
<rect x="221.04" y="92.8799" width="5.76001" height="5.76" fill="#494E53"/>
<rect x="56.1602" y="79.9199" width="24.48" height="5.75999" fill="#494E53"/>
<rect x="86.4004" y="102.96" width="11.52" height="5.76" fill="#494E53"/>
<rect x="86.4004" y="120.24" width="11.52" height="5.76" fill="#494E53"/>
<rect x="38.8799" y="120.24" width="24.48" height="5.76" fill="#494E53"/>
<rect x="79.2002" y="149.04" width="17.28" height="5.75999" fill="#494E53"/>
<rect x="80.6406" y="85.6797" width="5.76" height="5.76" fill="#494E53"/>
<rect x="63.3604" y="107.28" width="11.52" height="5.76" fill="#494E53"/>
<rect x="63.3604" y="124.56" width="11.52" height="5.76" fill="#494E53"/>
<rect x="57.6006" y="113.04" width="5.76" height="11.52" fill="#494E53"/>
<rect x="74.8799" y="113.04" width="5.76" height="5.75999" fill="#494E53"/>
<rect x="74.8799" y="130.32" width="5.76" height="5.75999" fill="#494E53"/>
<rect x="63.3604" y="113.04" width="5.76" height="5.75999" fill="#494E53"/>
<rect x="51.8408" y="126" width="5.76" height="5.76" fill="#494E53"/>
<rect x="46.0801" y="131.76" width="5.76" height="5.75999" fill="#494E53"/>
<rect x="74.8799" y="101.52" width="5.76" height="5.76" fill="#494E53"/>
<rect x="80.6406" y="95.7598" width="5.76" height="5.75999" fill="#494E53"/>
<rect x="80.6406" y="136.08" width="5.76" height="5.76001" fill="#494E53"/>
<rect x="86.4004" y="136.08" width="5.76" height="5.76001" fill="#494E53"/>
<rect x="69.1201" y="118.8" width="5.75999" height="5.76" fill="#494E53"/>
<rect x="90.7207" y="126" width="5.76" height="5.76" fill="#494E53"/>
<rect x="38.8799" y="126" width="5.76" height="5.76" fill="#494E53"/>
<rect x="33.1201" y="114.479" width="5.76" height="5.76" fill="#494E53"/>
<rect x="33.1201" y="97.2002" width="17.28" height="5.75999" fill="#494E53"/>
<rect x="27.3604" y="102.96" width="5.76" height="11.52" fill="#494E53"/>
<rect x="50.4004" y="85.6797" width="5.76" height="23.04" fill="#494E53"/>
<rect x="73.4404" y="143.28" width="5.75999" height="5.76001" fill="#494E53"/>
<rect x="67.6807" y="137.52" width="5.76" height="5.75999" fill="#494E53"/>
<rect x="61.9199" y="143.28" width="5.76" height="5.76001" fill="#494E53"/>
<rect x="33.1201" y="131.76" width="5.76" height="17.28" fill="#494E53"/>
<rect x="38.8799" y="149.04" width="23.04" height="5.75999" fill="#494E53"/>
<rect x="97.9199" y="108.72" width="5.76" height="11.52" fill="#494E53"/>
<rect x="86.4004" y="91.4395" width="5.76" height="11.52" fill="#494E53"/>
<rect x="96.4805" y="131.76" width="5.75999" height="17.28" fill="#494E53"/>
<rect x="126" y="98.6396" width="5.75999" height="5.76" fill="#494E53"/>
<rect x="200.16" y="166.32" width="5.75999" height="5.75999" fill="#494E53"/>
<rect x="24.4805" y="56.8799" width="5.76" height="5.76" fill="#494E53"/>
</svg>
