<svg width="24" height="24" viewBox="0 0 32 32" fill="none" xmlns="http://www.w3.org/2000/svg">
<g clip-path="url(#clip0_970_49782)">
<path fill-rule="evenodd" clip-rule="evenodd" d="M26.6667 0H24H21.3333V2.66667H18.6667V5.33333H16V8H13.3333V10.6667H10.6667V13.3333H8V16H5.33333V18.6667H2.66667V24H0V29.3333H2.66667V32H8V29.3333H13.3333V26.6667H16V24H18.6667V21.3333H21.3333V18.6667H24V16H26.6667V13.3333H29.3333V10.6667H32V8V5.33333H29.3333V2.66667H26.6667V0ZM26.6667 2.66667V5.33333H29.3333V8V10.6667H26.6667V8H24V5.33333H21.3333V2.66667H24H26.6667ZM21.3333 5.33333H18.6667V8H16V10.6667H13.3333V13.3333H10.6667V16H8V18.6667H5.33333V24H2.66667V29.3333H8V26.6667H13.3333V24H16V21.3333H18.6667V18.6667H21.3333V16H24V13.3333H26.6667V10.6667H24V8H21.3333V5.33333ZM10.6667 21.3333H13.3333V24H10.6667V21.3333ZM10.6667 21.3333V18.6667H8V21.3333H10.6667ZM8 26.6667H5.33333V24H8V26.6667Z" fill="inherit"/>
</g>
<defs>
<clipPath id="clip0_970_49782">
<rect width="32" height="32" fill="inherit"/>
</clipPath>
</defs>
</svg>
