<svg width="24" height="24" viewBox="0 0 32 32" fill="inherit" xmlns="http://www.w3.org/2000/svg">
<g clip-path="url(#clip0_970_49704)">
<path fill-rule="evenodd" clip-rule="evenodd" d="M21.3333 0H10.6667V2.66667H8V5.33333H5.33333V8H2.66667V10.6667H0V21.3333H2.66667V24H5.33333V26.6667H8V29.3333H10.6667V32H21.3333V29.3333H24V26.6667H26.6667V24H29.3333V21.3333H32V10.6667H29.3333V8H26.6667V5.33333H24V2.66667H21.3333V0ZM21.3333 2.66667V5.33333H24V8H26.6667V10.6667H29.3333V21.3333H26.6667V24H24V26.6667H21.3333V29.3333H10.6667V26.6667H8V24H5.33333V21.3333H2.66667V10.6667H5.33333V8H8V5.33333H10.6667V2.66667H21.3333ZM16 10.6667H13.3333V13.3333H10.6667V16H8H5.33333V18.6667H8H10.6667V21.3333H13.3333V24V26.6667H16V24V21.3333H18.6667V18.6667H21.3333V16H24H26.6667V13.3333H24H21.3333V10.6667H18.6667V8V5.33333H16V8V10.6667ZM16 13.3333H13.3333V16H10.6667V18.6667H13.3333V21.3333H16V18.6667H18.6667V16H21.3333V13.3333H18.6667V10.6667H16V13.3333ZM16 16H13.3333V18.6667H16V16ZM16 16V13.3333H18.6667V16H16Z" fill="inherit"/>
</g>
<defs>
<clipPath id="clip0_970_49704">
<rect width="32" height="32" fill="inherit"/>
</clipPath>
</defs>
</svg>
