<svg width="24" height="24" viewBox="0 0 32 32" fill="none" xmlns="http://www.w3.org/2000/svg">
<g clip-path="url(#clip0_970_49949)">
<path fill-rule="evenodd" clip-rule="evenodd" d="M18.6667 0H13.3333V2.66667H10.6667V5.33333H8V8H5.33333V10.6667H2.66667V13.3333H0V16H2.66667V13.3333H5.33333V29.3333L8 29.3333V32H24V29.3333L26.6667 29.3333V13.3333H29.3333V16H32V13.3333H29.3333V10.6667H26.6667V8H24V5.33333H21.3333V2.66667H18.6667V0ZM18.6667 2.66667V5.33333H21.3333V8H24V10.6667H26.6667V13.3333H24V29.3333H8V13.3333H5.33333V10.6667H8V8H10.6667V5.33333H13.3333V2.66667H18.6667ZM10.6667 21.3333H13.3333V24H10.6667V21.3333ZM18.6667 24V26.6667H16H13.3333V24H16H18.6667ZM18.6667 21.3333H21.3333V24H18.6667V21.3333ZM18.6667 16V18.6667V21.3333H16H13.3333V18.6667H16V16H18.6667ZM18.6667 16V13.3333H21.3333V16H18.6667Z" fill="inherit"/>
</g>
<defs>
<clipPath id="clip0_970_49949">
<rect width="32" height="32" fill="inherit"/>
</clipPath>
</defs>
</svg>
