<svg width="407" height="317" viewBox="0 0 407 317" fill="none" xmlns="http://www.w3.org/2000/svg">
<rect x="206.553" y="80.2661" width="8.14" height="8.1282" fill="#256E7E"/>
<rect x="206.553" y="47.7534" width="16.28" height="8.1282" fill="#256E7E"/>
<rect x="222.833" y="80.2661" width="8.14" height="8.1282" fill="#256E7E"/>
<rect x="222.833" y="55.8818" width="8.14" height="8.1282" fill="#256E7E"/>
<rect x="214.692" y="64.0098" width="8.14" height="8.1282" fill="#256E7E"/>
<rect x="198.413" y="55.8818" width="8.14" height="24.3846" fill="#256E7E"/>
<rect x="230.973" y="64.0098" width="8.14" height="16.2564" fill="#256E7E"/>
<rect x="214.692" y="88.3945" width="8.14" height="8.1282" fill="#256E7E"/>
<rect x="210.623" y="234.702" width="8.14" height="8.1282" transform="rotate(180 210.623 234.702)" fill="#256E7E"/>
<rect x="210.623" y="267.215" width="16.28" height="8.1282" transform="rotate(180 210.623 267.215)" fill="#256E7E"/>
<rect x="194.343" y="234.702" width="8.14" height="8.1282" transform="rotate(180 194.343 234.702)" fill="#256E7E"/>
<rect x="194.343" y="259.086" width="8.14" height="8.12822" transform="rotate(180 194.343 259.086)" fill="#256E7E"/>
<rect x="202.483" y="250.958" width="8.14" height="8.1282" transform="rotate(180 202.483 250.958)" fill="#256E7E"/>
<rect x="218.763" y="259.086" width="8.14" height="24.3846" transform="rotate(180 218.763 259.086)" fill="#256E7E"/>
<rect x="186.203" y="250.958" width="8.14" height="16.2564" transform="rotate(180 186.203 250.958)" fill="#256E7E"/>
<rect x="202.483" y="226.574" width="8.14" height="8.1282" transform="rotate(180 202.483 226.574)" fill="#256E7E"/>
<rect x="275.742" y="76.2021" width="40.7" height="8.12821" fill="#256E7E"/>
<rect x="316.442" y="84.3306" width="24.42" height="8.1282" fill="#256E7E"/>
<rect x="340.862" y="92.4585" width="8.14001" height="8.1282" fill="#256E7E"/>
<rect x="340.862" y="124.971" width="8.14001" height="8.12821" fill="#256E7E"/>
<rect x="275.742" y="116.843" width="8.14001" height="8.1282" fill="#256E7E"/>
<rect x="349.002" y="133.1" width="8.13998" height="8.1282" fill="#256E7E"/>
<rect x="357.143" y="141.228" width="8.14001" height="8.1282" fill="#256E7E"/>
<rect x="324.583" y="189.997" width="8.14001" height="8.1282" fill="#256E7E"/>
<rect x="292.022" y="151.388" width="8.14001" height="8.1282" fill="#256E7E"/>
<rect x="295.075" y="198.125" width="29.5075" height="8.1282" fill="#256E7E"/>
<rect x="357.143" y="165.612" width="8.14001" height="8.1282" fill="#256E7E"/>
<rect x="255.393" y="157.484" width="8.14" height="8.1282" fill="#256E7E"/>
<rect x="255.393" y="133.1" width="8.14" height="8.1282" fill="#256E7E"/>
<rect x="263.532" y="124.971" width="20.35" height="8.12821" fill="#256E7E"/>
<rect x="340.862" y="173.741" width="16.28" height="8.1282" fill="#256E7E"/>
<rect x="308.302" y="118.875" width="16.28" height="8.1282" fill="#256E7E"/>
<rect x="308.302" y="143.26" width="16.28" height="8.1282" fill="#256E7E"/>
<rect x="263.532" y="165.612" width="31.5425" height="8.1282" fill="#256E7E"/>
<rect x="365.282" y="149.356" width="8.13998" height="16.2564" fill="#256E7E"/>
<rect x="247.252" y="141.228" width="8.14" height="16.2564" fill="#256E7E"/>
<rect x="286.935" y="173.741" width="8.14001" height="24.3846" fill="#256E7E"/>
<rect x="300.163" y="127.003" width="8.13998" height="24.3846" fill="#256E7E"/>
<rect x="324.583" y="127.003" width="8.14001" height="16.2564" fill="#256E7E"/>
<rect x="332.723" y="173.741" width="8.13998" height="16.2564" fill="#256E7E"/>
<rect x="349.002" y="100.587" width="8.13998" height="24.3846" fill="#256E7E"/>
<rect x="316.442" y="92.4585" width="8.13998" height="26.4167" fill="#256E7E"/>
<rect x="309.32" y="151.388" width="8.13998" height="46.7372" fill="#256E7E"/>
<rect x="267.603" y="84.3306" width="8.13998" height="32.5128" fill="#256E7E"/>
<rect x="300.163" y="110.747" width="8.13998" height="8.1282" fill="#256E7E"/>
<rect x="292.022" y="101.603" width="8.14001" height="8.1282" fill="#256E7E"/>
<rect x="283.882" y="92.4585" width="8.13998" height="8.1282" fill="#256E7E"/>
<rect x="332.723" y="143.26" width="8.13998" height="8.1282" fill="#256E7E"/>
<rect x="340.862" y="151.388" width="8.14001" height="8.1282" fill="#256E7E"/>
<rect x="275.742" y="84.3306" width="8.14001" height="8.1282" fill="#256E7E"/>
<rect x="312.373" y="131.067" width="8.14001" height="8.1282" fill="#256E7E"/>
<rect x="79.3652" y="112.779" width="34.595" height="8.1282" fill="#256E7E"/>
<rect x="122.1" y="145.292" width="16.28" height="8.1282" fill="#256E7E"/>
<rect x="122.1" y="169.676" width="16.28" height="8.1282" fill="#256E7E"/>
<rect x="54.9448" y="169.676" width="34.595" height="8.1282" fill="#256E7E"/>
<rect x="111.925" y="210.317" width="24.42" height="8.1282" fill="#256E7E"/>
<rect x="113.96" y="120.907" width="8.14" height="8.12821" fill="#256E7E"/>
<rect x="89.54" y="151.388" width="16.28" height="8.1282" fill="#256E7E"/>
<rect x="89.54" y="175.772" width="16.28" height="8.1282" fill="#256E7E"/>
<rect x="81.3999" y="159.516" width="8.14" height="16.2564" fill="#256E7E"/>
<rect x="105.82" y="159.516" width="8.14" height="8.1282" fill="#256E7E"/>
<rect x="105.82" y="183.9" width="8.14" height="8.1282" fill="#256E7E"/>
<rect x="89.54" y="159.516" width="8.14" height="8.1282" fill="#256E7E"/>
<rect x="73.2603" y="177.805" width="8.14" height="8.1282" fill="#256E7E"/>
<rect x="65.1201" y="185.933" width="8.14" height="8.1282" fill="#256E7E"/>
<rect x="105.82" y="143.26" width="8.14" height="8.1282" fill="#256E7E"/>
<rect x="113.96" y="135.131" width="8.14" height="8.1282" fill="#256E7E"/>
<rect x="113.96" y="192.029" width="8.14" height="8.12822" fill="#256E7E"/>
<rect x="122.1" y="192.029" width="8.14001" height="8.12822" fill="#256E7E"/>
<rect x="97.6802" y="167.644" width="8.14" height="8.1282" fill="#256E7E"/>
<rect x="128.205" y="177.805" width="8.14" height="8.1282" fill="#256E7E"/>
<rect x="54.9448" y="177.805" width="8.14" height="8.1282" fill="#256E7E"/>
<rect x="46.8052" y="161.548" width="8.14" height="8.1282" fill="#256E7E"/>
<rect x="46.8052" y="137.164" width="24.42" height="8.1282" fill="#256E7E"/>
<rect x="38.665" y="145.292" width="8.14" height="16.2564" fill="#256E7E"/>
<rect x="71.2251" y="120.907" width="8.14" height="32.5128" fill="#256E7E"/>
<rect x="103.785" y="202.189" width="8.14" height="8.1282" fill="#256E7E"/>
<rect x="95.645" y="194.061" width="8.14001" height="8.1282" fill="#256E7E"/>
<rect x="87.5049" y="202.189" width="8.14" height="8.1282" fill="#256E7E"/>
<rect x="46.8052" y="185.933" width="8.14" height="24.3846" fill="#256E7E"/>
<rect x="54.9448" y="210.317" width="32.56" height="8.1282" fill="#256E7E"/>
<rect x="138.38" y="153.42" width="8.14" height="16.2564" fill="#256E7E"/>
<rect x="122.1" y="129.035" width="8.14001" height="16.2564" fill="#256E7E"/>
<rect x="136.345" y="185.933" width="8.14" height="24.3846" fill="#256E7E"/>
<rect x="178.062" y="139.195" width="8.14" height="8.1282" fill="#256E7E"/>
<rect x="282.865" y="234.702" width="8.14001" height="8.1282" fill="#256E7E"/>
<rect x="34.5952" y="80.2661" width="8.14" height="8.1282" fill="#256E7E"/>
</svg>
