<svg width="300" height="100" viewBox="0 0 355 126" fill="none" xmlns="http://www.w3.org/2000/svg">
<g clip-path="url(#clip0_970_8013)">
<path fill-rule="evenodd" clip-rule="evenodd" d="M40.3333 18.9707H36.6667V31.804H29.3333V28.1374H25.6667V24.4707H11V28.1374H7.33333V31.804H3.66667V35.4707H0V39.1374H3.66667V42.804H25.6667V39.1374H29.3333V35.4707H36.6667V48.304H33V51.9707H29.3333V59.304H11V62.9707H7.33333V66.6374H3.66667V70.304H0V92.304H3.66667V95.9707H7.33333V99.6374H11V103.304H29.3333V99.6374H33V95.9707H36.6667V92.304H40.3333V66.6374H36.6667V62.9707H33V51.9707H36.6667V48.304H40.3333V29.9707H47.6667V33.6374H51.3333V37.304H55V51.9707H58.6667V55.6374H62.3333V62.9707H56.8333V66.6374H53.1667V70.304H49.5V73.9707H45.8333V95.9707H49.5V99.6374H53.1667V103.304H56.8333V106.971H75.1667V103.304H78.8333V99.6374H82.5V95.9707H86.1667V73.9707H82.5V70.304H78.8333V66.6374H75.1667V62.9707H66V55.6374H62.3333V51.9707H58.6667V37.304H55V33.6374H51.3333V29.9707H47.6667V26.304H40.3333V18.9707ZM75.1667 66.6374V70.304H78.8333V73.9707H82.5V95.9707H78.8333V99.6374H75.1667V103.304H56.8333V99.6374H53.1667V95.9707H49.5V73.9707H53.1667V70.304H56.8333V66.6374H75.1667ZM33 62.9707H29.3333H11V66.6374H7.33333V70.304H3.66667V92.304H7.33333V95.9707H11V99.6374H29.3333V95.9707H33V92.304H36.6667V66.6374H33V62.9707ZM29.3333 35.4707H25.6667V39.1374H3.66667V35.4707H7.33333V31.804H11V28.1374H25.6667V31.804H29.3333V35.4707Z" fill="white"/>
<path d="M25.6667 28.1377H11V31.8044H7.33335V35.471H3.66669V39.1377H25.6667V35.471H29.3334V31.8044H25.6667V28.1377Z" fill="#B5FFE0"/>
<path d="M33 62.9707H11V66.6374H7.33335V70.304H3.66669V92.304H7.33335V95.9707H11V99.6374H29.3334V95.9707H33V92.304H36.6667V66.6374H33V62.9707Z" fill="url(#paint0_linear_970_8013)"/>
<path d="M75.1667 66.6377H56.8333V70.3044H53.1667V73.971H49.5V95.971H53.1667V99.6377H56.8333V103.304H75.1667V99.6377H78.8333V95.971H82.5V73.971H78.8333V70.3044H75.1667V66.6377Z" fill="url(#paint1_linear_970_8013)"/>
<path fill-rule="evenodd" clip-rule="evenodd" d="M25.6667 66.6377H22V70.3044H25.6667V77.6377H29.3333V81.3044H33V77.6377H29.3333V70.3044H25.6667V66.6377ZM71.5 70.3044H67.8333V73.971H71.5V81.3044H75.1667V84.971H78.8333V81.3044H75.1667V73.971H71.5V70.3044Z" fill="white"/>
</g>
<path d="M104.345 58.6831V27.3944H110.603V21.1367H116.861V14.8789H135.634V21.1367H141.892V27.3944H148.149V58.6831H135.634V46.1676H116.861V58.6831H104.345ZM116.861 39.9099H135.634V27.3944H129.376V21.1367H123.118V27.3944H116.861V39.9099Z" fill="#15191B"/>
<path d="M160.665 58.6831V14.8789H173.18V52.4254H198.211V58.6831H160.665Z" fill="#15191B"/>
<path d="M204.469 58.6831V14.8789H242.016V21.1367H248.273V39.9099H242.016V46.1676H216.985V58.6831H204.469ZM216.985 39.9099H235.758V21.1367H216.985V39.9099Z" fill="#15191B"/>
<path d="M254.531 58.6831V14.8789H267.047V33.6522H285.82V14.8789H298.335V58.6831H285.82V39.9099H267.047V58.6831H254.531Z" fill="#15191B"/>
<path d="M304.593 58.6831V27.3944H310.851V21.1367H317.108V14.8789H335.882V21.1367H342.139V27.3944H348.397V58.6831H335.882V46.1676H317.108V58.6831H304.593ZM317.108 39.9099H335.882V27.3944H329.624V21.1367H323.366V27.3944H317.108V39.9099Z" fill="#15191B"/>
<path fill-rule="evenodd" clip-rule="evenodd" d="M103.844 59.1834V26.8934H110.102V20.6357H116.36V14.3779H136.134V20.6357H142.392V26.8934H148.65V59.1834H135.133V46.6679H117.361V59.1834H103.844ZM116.861 46.1673H135.634V58.6828H148.149V27.394H141.892V21.1363H135.634V14.8785H116.861V21.1363H110.603V27.394H104.345V58.6828H116.861V46.1673ZM128.875 27.8947V21.6369H123.619V27.8947H117.361V39.4089H135.133V27.8947H128.875ZM135.634 27.394V39.9095H116.861V27.394H123.118V21.1363H129.376V27.394H135.634ZM160.164 59.1834V14.3779H173.681V51.9244H198.712V59.1834H160.164ZM173.18 52.425V14.8785H160.665V58.6828H198.211V52.425H173.18ZM203.968 59.1834V14.3779H242.516V20.6357H248.774V40.4102H242.516V46.6679H217.485V59.1834H203.968ZM216.985 46.1673H242.016V39.9095H248.273V21.1363H242.016V14.8785H204.469V58.6828H216.985V46.1673ZM235.758 39.9095H216.985V21.1363H235.758V39.9095ZM235.257 21.6369H217.485V39.4089H235.257V21.6369ZM254.03 59.1834V14.3779H267.547V33.1512H285.319V14.3779H298.836V59.1834H285.319V40.4102H267.547V59.1834H254.03ZM267.047 39.9095H285.82V58.6828H298.335V14.8785H285.82V33.6518H267.047V14.8785H254.531V58.6828H267.047V39.9095ZM304.092 59.1834V26.8934H310.35V20.6357H316.608V14.3779H336.382V20.6357H342.64V26.8934H348.898V59.1834H335.381V46.6679H317.609V59.1834H304.092ZM317.109 46.1673H335.882V58.6828H348.397V27.394H342.139V21.1363H335.882V14.8785H317.109V21.1363H310.851V27.394H304.593V58.6828H317.109V46.1673ZM329.123 27.8947V21.6369H323.867V27.8947H317.609V39.4089H335.381V27.8947H329.123ZM335.882 27.394V39.9095H317.109V27.394H323.366V21.1363H329.624V27.394H335.882Z" fill="white"/>
<path d="M104.345 54.7027V23.4139H110.603V17.1562H116.861V10.8984H135.634V17.1562H141.892V23.4139H148.149V54.7027H135.634V42.1872H116.861V54.7027H104.345ZM116.861 35.9294H135.634V23.4139H129.376V17.1562H123.118V23.4139H116.861V35.9294Z" fill="#15191B"/>
<path d="M160.665 54.7027V10.8984H173.18V48.4449H198.211V54.7027H160.665Z" fill="#15191B"/>
<path d="M204.469 54.7027V10.8984H242.016V17.1562H248.273V35.9294H242.016V42.1872H216.985V54.7027H204.469ZM216.985 35.9294H235.758V17.1562H216.985V35.9294Z" fill="#15191B"/>
<path d="M254.531 54.7027V10.8984H267.047V29.6717H285.82V10.8984H298.335V54.7027H285.82V35.9294H267.047V54.7027H254.531Z" fill="#15191B"/>
<path d="M304.593 54.7027V23.4139H310.851V17.1562H317.108V10.8984H335.882V17.1562H342.139V23.4139H348.397V54.7027H335.882V42.1872H317.108V54.7027H304.593ZM317.108 35.9294H335.882V23.4139H329.624V17.1562H323.366V23.4139H317.108V35.9294Z" fill="#15191B"/>
<path fill-rule="evenodd" clip-rule="evenodd" d="M103.844 55.2039V22.9139H110.102V16.6562H116.36V10.3984H136.134V16.6562H142.392V22.9139H148.65V55.2039H135.133V42.6884H117.361V55.2039H103.844ZM116.861 42.1878H135.634V54.7033H148.149V23.4146H141.892V17.1568H135.634V10.8991H116.861V17.1568H110.603V23.4146H104.345V54.7033H116.861V42.1878ZM128.875 23.9152V17.6574H123.619V23.9152H117.361V35.4294H135.133V23.9152H128.875ZM135.634 23.4146V35.9301H116.861V23.4146H123.118V17.1568H129.376V23.4146H135.634ZM160.164 55.2039V10.3984H173.681V47.9449H198.712V55.2039H160.164ZM173.18 48.4455V10.8991H160.665V54.7033H198.211V48.4455H173.18ZM203.968 55.2039V10.3984H242.516V16.6562H248.774V36.4307H242.516V42.6884H217.485V55.2039H203.968ZM216.985 42.1878H242.016V35.9301H248.273V17.1568H242.016V10.8991H204.469V54.7033H216.985V42.1878ZM235.758 35.9301H216.985V17.1568H235.758V35.9301ZM235.257 17.6574H217.485V35.4294H235.257V17.6574ZM254.03 55.2039V10.3984H267.547V29.1717H285.319V10.3984H298.836V55.2039H285.319V36.4307H267.547V55.2039H254.03ZM267.047 35.9301H285.82V54.7033H298.335V10.8991H285.82V29.6723H267.047V10.8991H254.531V54.7033H267.047V35.9301ZM304.092 55.2039V22.9139H310.35V16.6562H316.608V10.3984H336.382V16.6562H342.64V22.9139H348.898V55.2039H335.381V42.6884H317.609V55.2039H304.092ZM317.109 42.1878H335.882V54.7033H348.397V23.4146H342.139V17.1568H335.882V10.8991H317.109V17.1568H310.851V23.4146H304.593V54.7033H317.109V42.1878ZM329.123 23.9152V17.6574H323.867V23.9152H317.609V35.4294H335.381V23.9152H329.123ZM335.882 23.4146V35.9301H317.109V23.4146H323.366V17.1568H329.624V23.4146H335.882Z" fill="white"/>
<path d="M104.345 50.7222V19.4335H110.603V13.1757H116.861V6.91797H135.634V13.1757H141.892V19.4335H148.149V50.7222H135.634V38.2067H116.861V50.7222H104.345ZM116.861 31.949H135.634V19.4335H129.376V13.1757H123.118V19.4335H116.861V31.949Z" fill="#15191B"/>
<path d="M160.665 50.7222V6.91797H173.18V44.4645H198.211V50.7222H160.665Z" fill="#15191B"/>
<path d="M204.469 50.7222V6.91797H242.016V13.1757H248.273V31.949H242.016V38.2067H216.985V50.7222H204.469ZM216.985 31.949H235.758V13.1757H216.985V31.949Z" fill="#15191B"/>
<path d="M254.531 50.7222V6.91797H267.047V25.6912H285.82V6.91797H298.335V50.7222H285.82V31.949H267.047V50.7222H254.531Z" fill="#15191B"/>
<path d="M304.593 50.7222V19.4335H310.851V13.1757H317.108V6.91797H335.882V13.1757H342.139V19.4335H348.397V50.7222H335.882V38.2067H317.108V50.7222H304.593ZM317.108 31.949H335.882V19.4335H329.624V13.1757H323.366V19.4335H317.108V31.949Z" fill="#15191B"/>
<path fill-rule="evenodd" clip-rule="evenodd" d="M103.844 51.2234V18.9335H110.102V12.6757H116.36V6.41797H136.134V12.6757H142.392V18.9335H148.65V51.2234H135.133V38.7079H117.361V51.2234H103.844ZM116.861 38.2073H135.634V50.7228H148.149V19.4341H141.892V13.1763H135.634V6.91859H116.861V13.1763H110.603V19.4341H104.345V50.7228H116.861V38.2073ZM128.875 19.9347V13.677H123.619V19.9347H117.361V31.449H135.133V19.9347H128.875ZM135.634 19.4341V31.9496H116.861V19.4341H123.118V13.1763H129.376V19.4341H135.634ZM160.164 51.2234V6.41797H173.681V43.9645H198.712V51.2234H160.164ZM173.18 44.4651V6.91859H160.665V50.7228H198.211V44.4651H173.18ZM203.968 51.2234V6.41797H242.516V12.6757H248.774V32.4502H242.516V38.7079H217.485V51.2234H203.968ZM216.985 38.2073H242.016V31.9496H248.273V13.1763H242.016V6.91859H204.469V50.7228H216.985V38.2073ZM235.758 31.9496H216.985V13.1763H235.758V31.9496ZM235.257 13.677H217.485V31.449H235.257V13.677ZM254.03 51.2234V6.41797H267.547V25.1912H285.319V6.41797H298.836V51.2234H285.319V32.4502H267.547V51.2234H254.03ZM267.047 31.9496H285.82V50.7228H298.335V6.91859H285.82V25.6918H267.047V6.91859H254.531V50.7228H267.047V31.9496ZM304.092 51.2234V18.9335H310.35V12.6757H316.608V6.41797H336.382V12.6757H342.64V18.9335H348.898V51.2234H335.381V38.7079H317.609V51.2234H304.092ZM317.109 38.2073H335.882V50.7228H348.397V19.4341H342.139V13.1763H335.882V6.91859H317.109V13.1763H310.851V19.4341H304.593V50.7228H317.109V38.2073ZM329.123 19.9347V13.677H323.867V19.9347H317.609V31.449H335.381V19.9347H329.123ZM335.882 19.4341V31.9496H317.109V19.4341H323.366V13.1763H329.624V19.4341H335.882Z" fill="white"/>
<path d="M104.345 46.7427V15.454H110.603V9.19622H116.861V2.93848H135.634V9.19622H141.892V15.454H148.149V46.7427H135.634V34.2272H116.861V46.7427H104.345ZM116.861 27.9695H135.634V15.454H129.376V9.19622H123.118V15.454H116.861V27.9695Z" fill="white"/>
<path d="M160.665 46.7427V2.93848H173.18V40.485H198.211V46.7427H160.665Z" fill="white"/>
<path d="M204.469 46.7427V2.93848H242.016V9.19622H248.273V27.9695H242.016V34.2272H216.985V46.7427H204.469ZM216.985 27.9695H235.758V9.19622H216.985V27.9695Z" fill="white"/>
<path d="M254.531 46.7427V2.93848H267.047V21.7117H285.82V2.93848H298.335V46.7427H285.82V27.9695H267.047V46.7427H254.531Z" fill="white"/>
<path d="M304.593 46.7427V15.454H310.851V9.19622H317.108V2.93848H335.882V9.19622H342.139V15.454H348.397V46.7427H335.882V34.2272H317.108V46.7427H304.593ZM317.108 27.9695H335.882V15.454H329.624V9.19622H323.366V15.454H317.108V27.9695Z" fill="white"/>
<path fill-rule="evenodd" clip-rule="evenodd" d="M103.844 47.243V14.953H110.102V8.69525H116.36V2.4375H136.134V8.69525H142.392V14.953H148.65V47.243H135.133V34.7275H117.361V47.243H103.844ZM116.861 34.2269H135.634V46.7424H148.149V15.4536H141.892V9.19587H135.634V2.93812H116.861V9.19587H110.603V15.4536H104.345V46.7424H116.861V34.2269ZM128.875 15.9542V9.69649H123.619V15.9542H117.361V27.4685H135.133V15.9542H128.875ZM135.634 15.4536V27.9691H116.861V15.4536H123.118V9.19587H129.376V15.4536H135.634ZM160.164 47.243V2.4375H173.681V39.984H198.712V47.243H160.164ZM173.18 40.4846V2.93812H160.665V46.7424H198.211V40.4846H173.18ZM203.968 47.243V2.4375H242.516V8.69525H248.774V28.4697H242.516V34.7275H217.485V47.243H203.968ZM216.985 34.2269H242.016V27.9691H248.273V9.19587H242.016V2.93812H204.469V46.7424H216.985V34.2269ZM235.758 27.9691H216.985V9.19587H235.758V27.9691ZM235.257 9.69649H217.485V27.4685H235.257V9.69649ZM254.03 47.243V2.4375H267.547V21.2107H285.319V2.4375H298.836V47.243H285.319V28.4697H267.547V47.243H254.03ZM267.047 27.9691H285.82V46.7424H298.335V2.93812H285.82V21.7114H267.047V2.93812H254.531V46.7424H267.047V27.9691ZM304.092 47.243V14.953H310.35V8.69525H316.608V2.4375H336.382V8.69525H342.64V14.953H348.898V47.243H335.381V34.7275H317.609V47.243H304.092ZM317.109 34.2269H335.882V46.7424H348.397V15.4536H342.139V9.19587H335.882V2.93812H317.109V9.19587H310.851V15.4536H304.593V46.7424H317.109V34.2269ZM329.123 15.9542V9.69649H323.867V15.9542H317.609V27.4685H335.381V15.9542H329.123ZM335.882 15.4536V27.9691H317.109V15.4536H323.366V9.19587H329.624V15.4536H335.882Z" fill="white"/>
<path d="M123.118 117.683V92.6522H110.603V86.3944H123.118V73.8789H135.634V86.3944H148.149V92.6522H135.634V117.683H123.118Z" fill="#15191B"/>
<path d="M166.923 111.425H173.18V117.683H160.665V111.425H154.407V86.3944H166.923V111.425ZM179.438 86.3944V111.425H173.18V86.3944H179.438ZM198.211 86.3944V111.425H191.954V117.683H179.438V111.425H185.696V86.3944H198.211Z" fill="#15191B"/>
<path d="M210.727 117.683V111.425H204.469V92.6522H210.727V86.3944H242.016V92.6522H248.273V105.168H216.985V111.425H242.016V117.683H210.727ZM216.985 98.9099H235.758V92.6522H216.985V98.9099Z" fill="#15191B"/>
<path d="M260.789 117.683V111.425H254.531V92.6522H260.789V86.3944H292.077V92.6522H298.335V105.168H267.047V111.425H292.077V117.683H260.789ZM267.047 98.9099H285.82V92.6522H267.047V98.9099Z" fill="#15191B"/>
<path d="M323.366 117.683V92.6522H310.851V86.3944H323.366V73.8789H335.882V86.3944H348.397V92.6522H335.882V117.683H323.366Z" fill="#15191B"/>
<path fill-rule="evenodd" clip-rule="evenodd" d="M122.618 118.183V93.1524H110.102V85.8934H122.618V73.3779H136.134V85.8934H148.65V93.1524H136.134V118.183H122.618ZM135.634 92.6518H148.149V86.394H135.634V73.8785H123.118V86.394H110.603V92.6518H123.118V117.683H135.634V92.6518ZM173.681 118.183H160.164V111.926H153.906V85.8934H167.423V110.924H172.68V85.8934H179.939V110.924H185.195V85.8934H198.712V111.926H192.454V118.183H178.937V111.926H173.681V118.183ZM179.438 111.425V117.683H191.954V111.425H198.211V86.394H185.696V111.425H179.438V86.394H173.18V111.425H166.923V86.394H154.407V111.425H160.665V117.683H173.18V111.425H179.438ZM210.226 118.183V111.926H203.968V92.1512H210.226V85.8934H242.516V92.1512H248.774V105.668H217.485V110.924H242.516V118.183H210.226ZM216.985 111.425V105.167H248.273V92.6518H242.016V86.394H210.727V92.6518H204.469V111.425H210.727V117.683H242.016V111.425H216.985ZM235.758 98.9095H216.985V92.6518H235.758V98.9095ZM235.257 93.1524H217.485V98.4089H235.257V93.1524ZM260.288 118.183V111.926H254.03V92.1512H260.288V85.8934H292.578V92.1512H298.836V105.668H267.547V110.924H292.578V118.183H260.288ZM267.047 111.425V105.167H298.335V92.6518H292.078V86.394H260.789V92.6518H254.531V111.425H260.789V117.683H292.078V111.425H267.047ZM285.82 98.9095H267.047V92.6518H285.82V98.9095ZM285.319 93.1524H267.547V98.4089H285.319V93.1524ZM322.866 118.183V93.1524H310.35V85.8934H322.866V73.3779H336.382V85.8934H348.898V93.1524H336.382V118.183H322.866ZM335.882 92.6518H348.397V86.394H335.882V73.8785H323.366V86.394H310.851V92.6518H323.366V117.683H335.882V92.6518Z" fill="white"/>
<path d="M123.118 113.703V88.6717H110.603V82.4139H123.118V69.8984H135.634V82.4139H148.149V88.6717H135.634V113.703H123.118Z" fill="#15191B"/>
<path d="M166.923 107.445H173.18V113.703H160.665V107.445H154.407V82.4139H166.923V107.445ZM179.438 82.4139V107.445H173.18V82.4139H179.438ZM198.211 82.4139V107.445H191.954V113.703H179.438V107.445H185.696V82.4139H198.211Z" fill="#15191B"/>
<path d="M210.727 113.703V107.445H204.469V88.6717H210.727V82.4139H242.016V88.6717H248.273V101.187H216.985V107.445H242.016V113.703H210.727ZM216.985 94.9294H235.758V88.6717H216.985V94.9294Z" fill="#15191B"/>
<path d="M260.789 113.703V107.445H254.531V88.6717H260.789V82.4139H292.077V88.6717H298.335V101.187H267.047V107.445H292.077V113.703H260.789ZM267.047 94.9294H285.82V88.6717H267.047V94.9294Z" fill="#15191B"/>
<path d="M323.366 113.703V88.6717H310.851V82.4139H323.366V69.8984H335.882V82.4139H348.397V88.6717H335.882V113.703H323.366Z" fill="#15191B"/>
<path fill-rule="evenodd" clip-rule="evenodd" d="M122.618 114.204V89.1729H110.102V81.9139H122.618V69.3984H136.134V81.9139H148.65V89.1729H136.134V114.204H122.618ZM135.634 88.6723H148.149V82.4146H135.634V69.8991H123.118V82.4146H110.603V88.6723H123.118V113.703H135.634V88.6723ZM173.681 114.204H160.164V107.946H153.906V81.9139H167.423V106.945H172.68V81.9139H179.939V106.945H185.195V81.9139H198.712V107.946H192.454V114.204H178.937V107.946H173.681V114.204ZM179.438 107.446V113.703H191.954V107.446H198.211V82.4146H185.696V107.446H179.438V82.4146H173.18V107.446H166.923V82.4146H154.407V107.446H160.665V113.703H173.18V107.446H179.438ZM210.226 114.204V107.946H203.968V88.1717H210.226V81.9139H242.516V88.1717H248.774V101.688H217.485V106.945H242.516V114.204H210.226ZM216.985 107.446V101.188H248.273V88.6723H242.016V82.4146H210.727V88.6723H204.469V107.446H210.727V113.703H242.016V107.446H216.985ZM235.758 94.9301H216.985V88.6723H235.758V94.9301ZM235.257 89.1729H217.485V94.4294H235.257V89.1729ZM260.288 114.204V107.946H254.03V88.1717H260.288V81.9139H292.578V88.1717H298.836V101.688H267.547V106.945H292.578V114.204H260.288ZM267.047 107.446V101.188H298.335V88.6723H292.078V82.4146H260.789V88.6723H254.531V107.446H260.789V113.703H292.078V107.446H267.047ZM285.82 94.9301H267.047V88.6723H285.82V94.9301ZM285.319 89.1729H267.547V94.4294H285.319V89.1729ZM322.866 114.204V89.1729H310.35V81.9139H322.866V69.3984H336.382V81.9139H348.898V89.1729H336.382V114.204H322.866ZM335.882 88.6723H348.397V82.4146H335.882V69.8991H323.366V82.4146H310.851V88.6723H323.366V113.703H335.882V88.6723Z" fill="white"/>
<path d="M123.118 109.722V84.6912H110.603V78.4335H123.118V65.918H135.634V78.4335H148.149V84.6912H135.634V109.722H123.118Z" fill="#15191B"/>
<path d="M166.923 103.464H173.18V109.722H160.665V103.464H154.407V78.4335H166.923V103.464ZM179.438 78.4335V103.464H173.18V78.4335H179.438ZM198.211 78.4335V103.464H191.954V109.722H179.438V103.464H185.696V78.4335H198.211Z" fill="#15191B"/>
<path d="M210.727 109.722V103.464H204.469V84.6912H210.727V78.4335H242.016V84.6912H248.273V97.2067H216.985V103.464H242.016V109.722H210.727ZM216.985 90.949H235.758V84.6912H216.985V90.949Z" fill="#15191B"/>
<path d="M260.789 109.722V103.464H254.531V84.6912H260.789V78.4335H292.077V84.6912H298.335V97.2067H267.047V103.464H292.077V109.722H260.789ZM267.047 90.949H285.82V84.6912H267.047V90.949Z" fill="#15191B"/>
<path d="M323.366 109.722V84.6912H310.851V78.4335H323.366V65.918H335.882V78.4335H348.397V84.6912H335.882V109.722H323.366Z" fill="#15191B"/>
<path fill-rule="evenodd" clip-rule="evenodd" d="M122.618 110.223V85.1925H110.102V77.9335H122.618V65.418H136.134V77.9335H148.65V85.1925H136.134V110.223H122.618ZM135.634 84.6918H148.149V78.4341H135.634V65.9186H123.118V78.4341H110.603V84.6918H123.118V109.723H135.634V84.6918ZM173.681 110.223H160.164V103.966H153.906V77.9335H167.423V102.964H172.68V77.9335H179.939V102.964H185.195V77.9335H198.712V103.966H192.454V110.223H178.937V103.966H173.681V110.223ZM179.438 103.465V109.723H191.954V103.465H198.211V78.4341H185.696V103.465H179.438V78.4341H173.18V103.465H166.923V78.4341H154.407V103.465H160.665V109.723H173.18V103.465H179.438ZM210.226 110.223V103.966H203.968V84.1912H210.226V77.9335H242.516V84.1912H248.774V97.7079H217.485V102.964H242.516V110.223H210.226ZM216.985 103.465V97.2073H248.273V84.6918H242.016V78.4341H210.727V84.6918H204.469V103.465H210.727V109.723H242.016V103.465H216.985ZM235.758 90.9496H216.985V84.6918H235.758V90.9496ZM235.257 85.1925H217.485V90.449H235.257V85.1925ZM260.288 110.223V103.966H254.03V84.1912H260.288V77.9335H292.578V84.1912H298.836V97.7079H267.547V102.964H292.578V110.223H260.288ZM267.047 103.465V97.2073H298.335V84.6918H292.078V78.4341H260.789V84.6918H254.531V103.465H260.789V109.723H292.078V103.465H267.047ZM285.82 90.9496H267.047V84.6918H285.82V90.9496ZM285.319 85.1925H267.547V90.449H285.319V85.1925ZM322.866 110.223V85.1925H310.35V77.9335H322.866V65.418H336.382V77.9335H348.898V85.1925H336.382V110.223H322.866ZM335.882 84.6918H348.397V78.4341H335.882V65.9186H323.366V78.4341H310.851V84.6918H323.366V109.723H335.882V84.6918Z" fill="white"/>
<path d="M123.118 105.743V80.7117H110.603V74.454H123.118V61.9385H135.634V74.454H148.149V80.7117H135.634V105.743H123.118Z" fill="white"/>
<path d="M166.923 99.485H173.18V105.743H160.665V99.485H154.407V74.454H166.923V99.485ZM179.438 74.454V99.485H173.18V74.454H179.438ZM198.211 74.454V99.485H191.954V105.743H179.438V99.485H185.696V74.454H198.211Z" fill="white"/>
<path d="M210.727 105.743V99.485H204.469V80.7117H210.727V74.454H242.016V80.7117H248.273V93.2272H216.985V99.485H242.016V105.743H210.727ZM216.985 86.9695H235.758V80.7117H216.985V86.9695Z" fill="white"/>
<path d="M260.789 105.743V99.485H254.531V80.7117H260.789V74.454H292.077V80.7117H298.335V93.2272H267.047V99.485H292.077V105.743H260.789ZM267.047 86.9695H285.82V80.7117H267.047V86.9695Z" fill="white"/>
<path d="M323.366 105.743V80.7117H310.851V74.454H323.366V61.9385H335.882V74.454H348.397V80.7117H335.882V105.743H323.366Z" fill="white"/>
<path fill-rule="evenodd" clip-rule="evenodd" d="M122.618 106.243V81.212H110.102V73.953H122.618V61.4375H136.134V73.953H148.65V81.212H136.134V106.243H122.618ZM135.634 80.7114H148.149V74.4536H135.634V61.9381H123.118V74.4536H110.603V80.7114H123.118V105.742H135.634V80.7114ZM173.681 106.243H160.164V99.9852H153.906V73.953H167.423V98.984H172.68V73.953H179.939V98.984H185.195V73.953H198.712V99.9852H192.454V106.243H178.937V99.9852H173.681V106.243ZM179.438 99.4846V105.742H191.954V99.4846H198.211V74.4536H185.696V99.4846H179.438V74.4536H173.18V99.4846H166.923V74.4536H154.407V99.4846H160.665V105.742H173.18V99.4846H179.438ZM210.226 106.243V99.9852H203.968V80.2107H210.226V73.953H242.516V80.2107H248.774V93.7275H217.485V98.984H242.516V106.243H210.226ZM216.985 99.4846V93.2269H248.273V80.7114H242.016V74.4536H210.727V80.7114H204.469V99.4846H210.727V105.742H242.016V99.4846H216.985ZM235.758 86.9691H216.985V80.7114H235.758V86.9691ZM235.257 81.212H217.485V86.4685H235.257V81.212ZM260.288 106.243V99.9852H254.03V80.2107H260.288V73.953H292.578V80.2107H298.836V93.7275H267.547V98.984H292.578V106.243H260.288ZM267.047 99.4846V93.2269H298.335V80.7114H292.078V74.4536H260.789V80.7114H254.531V99.4846H260.789V105.742H292.078V99.4846H267.047ZM285.82 86.9691H267.047V80.7114H285.82V86.9691ZM285.319 81.212H267.547V86.4685H285.319V81.212ZM322.866 106.243V81.212H310.35V73.953H322.866V61.4375H336.382V73.953H348.898V81.212H336.382V106.243H322.866ZM335.882 80.7114H348.397V74.4536H335.882V61.9381H323.366V74.4536H310.851V80.7114H323.366V105.742H335.882V80.7114Z" fill="white"/>
<defs>
<linearGradient id="paint0_linear_970_8013" x1="17.6994" y1="102.379" x2="20.9323" y2="59.4186" gradientUnits="userSpaceOnUse">
<stop stop-color="#FF2B40"/>
<stop offset="1" stop-color="#FFB0A5"/>
</linearGradient>
<linearGradient id="paint1_linear_970_8013" x1="63.5327" y1="106.046" x2="66.7657" y2="63.0856" gradientUnits="userSpaceOnUse">
<stop stop-color="#FF2B40"/>
<stop offset="1" stop-color="#FFB0A5"/>
</linearGradient>
<clipPath id="clip0_970_8013">
<rect width="88" height="88" fill="white" transform="translate(0 18.9707)"/>
</clipPath>
</defs>
</svg>
