<svg width="24" height="24" viewBox="0 0 32 32" fill="none" xmlns="http://www.w3.org/2000/svg">
<g clip-path="url(#clip0_970_49761)">
<path fill-rule="evenodd" clip-rule="evenodd" d="M13.3333 0H18.6667V2.66667H13.3333V0ZM8 5.33333V2.66667H13.3333V5.33333H8ZM2.66667 8H8V5.33333H2.66667V8ZM2.66667 24H0V8H2.66667V24ZM8 26.6667H2.66667V24H8V26.6667ZM13.3333 29.3333H8V26.6667H13.3333V29.3333ZM18.6667 29.3333V32H13.3333V29.3333H18.6667ZM24 26.6667V29.3333H18.6667V26.6667H24ZM29.3333 24V26.6667H24V24H29.3333ZM29.3333 8H32V24H29.3333V8ZM24 5.33333H29.3333V8H24V5.33333ZM24 5.33333V2.66667H18.6667V5.33333H24ZM10.6667 12H8V14.6667H10.6667V12ZM24 12H21.3333V14.6667H24V12ZM10.6667 17.3333H21.3333V20V22.6667H10.6667V20V17.3333Z" fill="inherit"/>
</g>
<defs>
<clipPath id="clip0_970_49761">
<rect width="32" height="32" fill="inherit"/>
</clipPath>
</defs>
</svg>
