<svg width="25" height="24" viewBox="0 0 25 24" fill="none" xmlns="http://www.w3.org/2000/svg">
<path fill-rule="evenodd" clip-rule="evenodd" d="M8.33331 1H16.3333V3H8.33331V1ZM4.33331 5V3H8.33331V5H4.33331ZM4.33331 7H2.33331V5H4.33331V7ZM6.33331 9V7H4.33331V9H2.33331V11H4.33331V13H2.33331V15H4.33331V17H2.33331V19H4.33331V21H6.33331V23H18.3333V21H20.3333V19H22.3333V17H20.3333V15H22.3333V13H20.3333V11H22.3333V9H20.3333V7H22.3333V5H20.3333V3H16.3333V5H20.3333V7H18.3333V9H6.33331ZM6.33331 11V9H4.33331V11H6.33331ZM18.3333 11V9H20.3333V11H18.3333ZM18.3333 13H20.3333V15H18.3333V13ZM6.33331 13V11H18.3333V13H6.33331ZM6.33331 15H4.33331V13H6.33331V15ZM6.33331 17H4.33331V19H6.33331V21H18.3333V19H20.3333V17H18.3333V15H6.33331V17ZM6.33331 17H18.3333V19H6.33331V17Z" fill="#75797E"/>
</svg>
