<svg width="130" height="45" viewBox="0 0 130 45" fill="none" xmlns="http://www.w3.org/2000/svg">
<path fill-rule="evenodd" clip-rule="evenodd" d="M22.1276 0H28.5274V2.13326H22.1276V0ZM19.9945 2.15926H22.1277V4.29252H19.9945V2.15926ZM17.86 6.39978L15.7279 6.39979V2.13326H17.8611V4.29252H19.9943V6.42579H19.9933V14.9267H24.2601V17.0599H26.3941V19.1942H24.2598V17.061H15.7302V14.9267H17.86V6.39978ZM13.5947 6.42057H15.728V8.55384H13.5947V6.42057ZM13.5945 8.5341H11.4613V10.6663H9.32812V12.7937H5.06349V14.928H13.5934V17.0599V17.0609V19.1932H11.4603V27.7262H13.5946V19.1942H15.7277V17.0609V17.0599V14.9266H13.5934V12.7937H11.4614V10.6674H13.5945V8.5341ZM26.3942 19.1942H28.5285V27.7272H26.3942V19.1942ZM24.2601 32V29.8667H26.3941V27.7324H24.2598V29.8657H15.7302V32H24.2601ZM13.5934 27.7324H15.7277V29.8667H13.5934L13.5934 29.867H5.0635V27.7327H13.5934L13.5934 27.7324ZM15.7311 21.3274H17.8613V25.6012H15.7311V21.3274ZM17.8613 25.6002H19.9935V27.7324H17.8613V25.6002ZM0.792969 17.0599H2.92727V25.5929H0.792969V17.0599ZM5.06171 14.9266H2.92741V17.0609H5.06171V14.9266ZM2.92741 25.5992H5.06171V27.7335H2.92741V25.5992ZM7.19395 19.1932H5.0638V23.467H7.19395V19.1932ZM9.32619 23.467H7.19397V25.5992H9.32619V23.467ZM24.2611 4.3175H26.3943V6.45077H24.262V8.53304H19.9945V6.39978H24.2611V4.3175ZM28.5275 2.15926H26.3942V4.29252H28.5275V2.15926ZM13.5947 4.29252H9.32812V6.42579H13.5947V4.29252ZM9.32824 4.26652V2.13326L15.7278 2.13326V0H7.19369V2.13326H7.19499V4.26652H9.32824Z" fill="url(#paint0_linear_736_7927)"/>
<path d="M10.793 0.5H23.1892V9.69534H20.0601L19.793 9.5H13.793V6.40207H10.793V0.5Z" fill="url(#paint1_linear_736_7927)"/>
<path d="M41.793 0.5H32.793V6.5H29.293V9.5H39.293V6H41.793V0.5Z" fill="url(#paint2_linear_736_7927)"/>
<path d="M19.793 21.5H7.79297V25.5H3.79297V38.5H7.29297V41.5H23.293V44.5H35.793V41.5H39.293V28.5H35.793V25H19.793V21.5Z" fill="url(#paint3_linear_736_7927)"/>
<path fill-rule="evenodd" clip-rule="evenodd" d="M22.1276 0H28.5274V2.13326H22.1276V0ZM19.9945 2.15926H22.1277V4.29252H19.9945V2.15926ZM17.86 6.39978L15.7279 6.39979V2.13326H17.8611V4.29252H19.9943V6.42579H19.9933V14.9267H24.2601V17.0599H26.3941V19.1942H24.2598V17.061H15.7302V14.9267H17.86V6.39978ZM13.5947 6.42057H15.728V8.55384H13.5947V6.42057ZM13.5945 8.5341H11.4613V10.6663H9.32812V12.7937H5.06349V14.928H13.5934V17.0599V17.0609V19.1932H11.4603V27.7262H13.5946V19.1942H15.7277V17.0609V17.0599V14.9266H13.5934V12.7937H11.4614V10.6674H13.5945V8.5341ZM26.3942 19.1942H28.5285V27.7272H26.3942V19.1942ZM24.2601 32V29.8667H26.3941V27.7324H24.2598V29.8657H15.7302V32H24.2601ZM13.5934 27.7324H15.7277V29.8667H13.5934L13.5934 29.867H5.0635V27.7327H13.5934L13.5934 27.7324ZM15.7311 21.3274H17.8613V25.6012H15.7311V21.3274ZM17.8613 25.6002H19.9935V27.7324H17.8613V25.6002ZM0.792969 17.0599H2.92727V25.5929H0.792969V17.0599ZM5.06171 14.9266H2.92741V17.0609H5.06171V14.9266ZM2.92741 25.5992H5.06171V27.7335H2.92741V25.5992ZM7.19395 19.1932H5.0638V23.467H7.19395V19.1932ZM9.32619 23.467H7.19397V25.5992H9.32619V23.467ZM24.2611 4.3175H26.3943V6.45077H24.262V8.53304H19.9945V6.39978H24.2611V4.3175ZM28.5275 2.15926H26.3942V4.29252H28.5275V2.15926ZM13.5947 4.29252H9.32812V6.42579H13.5947V4.29252ZM9.32824 4.26652V2.13326L15.7278 2.13326V0H7.19369V2.13326H7.19499V4.26652H9.32824Z" fill="white"/>
<path fill-rule="evenodd" clip-rule="evenodd" d="M65.862 0H72.2618V2.13326H65.862V0ZM63.7288 2.15926H65.8621V4.29252H63.7288V2.15926ZM61.5944 6.39978L59.4622 6.39979V2.13326H61.5955V4.29252H63.7286V6.42579H63.7277V14.9267H67.9945V17.0599H70.1284V19.1942H67.9941V17.061H59.4645V14.9267H61.5944V6.39978ZM57.3291 6.42057H59.4624V8.55384H57.3291V6.42057ZM57.3289 8.5341H55.1956V10.6663H53.0625V12.7937H48.7979V14.928H57.3278V17.0599V17.0609V19.1932H55.1947V27.7262H57.329V19.1942H59.4621V17.0609V17.0599V14.9266H57.3278V12.7937H55.1958V10.6674H57.3289V8.5341ZM70.1286 19.1942H72.2629V27.7272H70.1286V19.1942ZM67.9945 32V29.8667H70.1284V27.7324H67.9941V29.8657H59.4645V32H67.9945ZM57.3278 27.7324H59.4621V29.8667H57.3278L57.3278 29.867H48.7979V27.7327H57.3278L57.3278 27.7324ZM59.4655 21.3274H61.5956V25.6012H59.4655V21.3274ZM61.5956 25.6002H63.7279V27.7324H61.5956V25.6002ZM44.5273 17.0599H46.6616V25.5929H44.5273V17.0599ZM48.7961 14.9266H46.6618V17.0609H48.7961V14.9266ZM46.6618 25.5992H48.7961V27.7335H46.6618V25.5992ZM50.9283 19.1932H48.7982V23.467H50.9283V19.1932ZM53.0606 23.467H50.9283V25.5992H53.0606V23.467ZM67.9954 4.3175H70.1287V6.45077H67.9964V8.53304H63.7288V6.39978H67.9954V4.3175ZM72.2618 2.15926H70.1286V4.29252H72.2618V2.15926ZM57.329 4.29252H53.0625V6.42579H57.329V4.29252ZM53.0626 4.26652V2.13326L59.4622 2.13326V0H50.9281V2.13326H50.9294V4.26652H53.0626Z" fill="url(#paint4_linear_736_7927)"/>
<path d="M54.5273 0.5H66.9236V9.69534H63.7945L63.5273 9.5H57.5273V6.40207H54.5273V0.5Z" fill="url(#paint5_linear_736_7927)"/>
<path d="M85.5273 0.5H76.5273V6.5H73.0273V9.5H83.0273V6H85.5273V0.5Z" fill="url(#paint6_linear_736_7927)"/>
<path d="M63.5273 21.5H51.5273V25.5H47.5273V38.5H51.0273V41.5H67.0273V44.5H79.5273V41.5H83.0273V28.5H79.5273V25H63.5273V21.5Z" fill="url(#paint7_linear_736_7927)"/>
<path fill-rule="evenodd" clip-rule="evenodd" d="M65.862 0H72.2618V2.13326H65.862V0ZM63.7288 2.15926H65.8621V4.29252H63.7288V2.15926ZM61.5944 6.39978L59.4622 6.39979V2.13326H61.5955V4.29252H63.7286V6.42579H63.7277V14.9267H67.9945V17.0599H70.1284V19.1942H67.9941V17.061H59.4645V14.9267H61.5944V6.39978ZM57.3291 6.42057H59.4624V8.55384H57.3291V6.42057ZM57.3289 8.5341H55.1956V10.6663H53.0625V12.7937H48.7979V14.928H57.3278V17.0599V17.0609V19.1932H55.1947V27.7262H57.329V19.1942H59.4621V17.0609V17.0599V14.9266H57.3278V12.7937H55.1958V10.6674H57.3289V8.5341ZM70.1286 19.1942H72.2629V27.7272H70.1286V19.1942ZM67.9945 32V29.8667H70.1284V27.7324H67.9941V29.8657H59.4645V32H67.9945ZM57.3278 27.7324H59.4621V29.8667H57.3278L57.3278 29.867H48.7979V27.7327H57.3278L57.3278 27.7324ZM59.4655 21.3274H61.5956V25.6012H59.4655V21.3274ZM61.5956 25.6002H63.7279V27.7324H61.5956V25.6002ZM44.5273 17.0599H46.6616V25.5929H44.5273V17.0599ZM48.7961 14.9266H46.6618V17.0609H48.7961V14.9266ZM46.6618 25.5992H48.7961V27.7335H46.6618V25.5992ZM50.9283 19.1932H48.7982V23.467H50.9283V19.1932ZM53.0606 23.467H50.9283V25.5992H53.0606V23.467ZM67.9954 4.3175H70.1287V6.45077H67.9964V8.53304H63.7288V6.39978H67.9954V4.3175ZM72.2618 2.15926H70.1286V4.29252H72.2618V2.15926ZM57.329 4.29252H53.0625V6.42579H57.329V4.29252ZM53.0626 4.26652V2.13326L59.4622 2.13326V0H50.9281V2.13326H50.9294V4.26652H53.0626Z" fill="white"/>
<path fill-rule="evenodd" clip-rule="evenodd" d="M109.6 0H116V2.13326H109.6V0ZM107.467 2.15926H109.6V4.29252H107.467V2.15926ZM105.333 6.39978L103.201 6.39979V2.13326H105.334V4.29252H107.467V6.42579H107.466V14.9267H111.733V17.0599H113.867V19.1942H111.732V17.061H103.203V14.9267H105.333V6.39978ZM101.067 6.42057H103.201V8.55384H101.067V6.42057ZM101.067 8.5341H98.9339V10.6663H96.8008V12.7937H92.5361V14.928H101.066V17.0599V17.0609V19.1932H98.9329V27.7262H101.067V19.1942H103.2V17.0609V17.0599V14.9266H101.066V12.7937H98.934V10.6674H101.067V8.5341ZM113.867 19.1942H116.001V27.7272H113.867V19.1942ZM111.733 32V29.8667H113.867V27.7324H111.732V29.8657H103.203V32H111.733ZM101.066 27.7324H103.2V29.8667H101.066L101.066 29.867H92.5362V27.7327H101.066L101.066 27.7324ZM103.204 21.3274H105.334V25.6012H103.204V21.3274ZM105.334 25.6002H107.466V27.7324H105.334V25.6002ZM88.2656 17.0599H90.3999V25.5929H88.2656V17.0599ZM92.5344 14.9266H90.4001V17.0609H92.5344V14.9266ZM90.4001 25.5992H92.5344V27.7335H90.4001V25.5992ZM94.6666 19.1932H92.5365V23.467H94.6666V19.1932ZM96.7988 23.467H94.6666V25.5992H96.7988V23.467ZM111.734 4.3175H113.867V6.45077H111.735V8.53304H107.467V6.39978H111.734V4.3175ZM116 2.15926H113.867V4.29252H116V2.15926ZM101.067 4.29252H96.8008V6.42579H101.067V4.29252ZM96.8009 4.26652V2.13326L103.2 2.13326V0H94.6663V2.13326H94.6676V4.26652H96.8009Z" fill="url(#paint8_linear_736_7927)"/>
<path d="M98.2656 0.5H110.662V9.69534H107.533L107.266 9.5H101.266V6.40207H98.2656V0.5Z" fill="url(#paint9_linear_736_7927)"/>
<path d="M129.266 0.5H120.266V6.5H116.766V9.5H126.766V6H129.266V0.5Z" fill="url(#paint10_linear_736_7927)"/>
<path d="M107.266 21.5H95.2656V25.5H91.2656V38.5H94.7656V41.5H110.766V44.5H123.266V41.5H126.766V28.5H123.266V25H107.266V21.5Z" fill="url(#paint11_linear_736_7927)"/>
<path fill-rule="evenodd" clip-rule="evenodd" d="M109.6 0H116V2.13326H109.6V0ZM107.467 2.15926H109.6V4.29252H107.467V2.15926ZM105.333 6.39978L103.201 6.39979V2.13326H105.334V4.29252H107.467V6.42579H107.466V14.9267H111.733V17.0599H113.867V19.1942H111.732V17.061H103.203V14.9267H105.333V6.39978ZM101.067 6.42057H103.201V8.55384H101.067V6.42057ZM101.067 8.5341H98.9339V10.6663H96.8008V12.7937H92.5361V14.928H101.066V17.0599V17.0609V19.1932H98.9329V27.7262H101.067V19.1942H103.2V17.0609V17.0599V14.9266H101.066V12.7937H98.934V10.6674H101.067V8.5341ZM113.867 19.1942H116.001V27.7272H113.867V19.1942ZM111.733 32V29.8667H113.867V27.7324H111.732V29.8657H103.203V32H111.733ZM101.066 27.7324H103.2V29.8667H101.066L101.066 29.867H92.5362V27.7327H101.066L101.066 27.7324ZM103.204 21.3274H105.334V25.6012H103.204V21.3274ZM105.334 25.6002H107.466V27.7324H105.334V25.6002ZM88.2656 17.0599H90.3999V25.5929H88.2656V17.0599ZM92.5344 14.9266H90.4001V17.0609H92.5344V14.9266ZM90.4001 25.5992H92.5344V27.7335H90.4001V25.5992ZM94.6666 19.1932H92.5365V23.467H94.6666V19.1932ZM96.7988 23.467H94.6666V25.5992H96.7988V23.467ZM111.734 4.3175H113.867V6.45077H111.735V8.53304H107.467V6.39978H111.734V4.3175ZM116 2.15926H113.867V4.29252H116V2.15926ZM101.067 4.29252H96.8008V6.42579H101.067V4.29252ZM96.8009 4.26652V2.13326L103.2 2.13326V0H94.6663V2.13326H94.6676V4.26652H96.8009Z" fill="white"/>
<defs>
<linearGradient id="paint0_linear_736_7927" x1="12.5871" y1="34.3925" x2="15.5155" y2="-3.08352" gradientUnits="userSpaceOnUse">
<stop stop-color="#FF2B40"/>
<stop offset="1" stop-color="#FFB0A5"/>
</linearGradient>
<linearGradient id="paint1_linear_736_7927" x1="16.0643" y1="10.3828" x2="16.6072" y2="-0.424542" gradientUnits="userSpaceOnUse">
<stop stop-color="#FF2B40"/>
<stop offset="1" stop-color="#FFB0A5"/>
</linearGradient>
<linearGradient id="paint2_linear_736_7927" x1="19.9518" y1="47.7897" x2="23.9928" y2="-3.73759" gradientUnits="userSpaceOnUse">
<stop stop-color="#FF2B40"/>
<stop offset="1" stop-color="#FFB0A5"/>
</linearGradient>
<linearGradient id="paint3_linear_736_7927" x1="19.9518" y1="47.7897" x2="23.9928" y2="-3.73759" gradientUnits="userSpaceOnUse">
<stop stop-color="#FF2B40"/>
<stop offset="1" stop-color="#FFB0A5"/>
</linearGradient>
<linearGradient id="paint4_linear_736_7927" x1="56.3214" y1="34.3925" x2="59.2499" y2="-3.08352" gradientUnits="userSpaceOnUse">
<stop stop-color="#FF2B40"/>
<stop offset="1" stop-color="#FFB0A5"/>
</linearGradient>
<linearGradient id="paint5_linear_736_7927" x1="59.7986" y1="10.3828" x2="60.3416" y2="-0.424542" gradientUnits="userSpaceOnUse">
<stop stop-color="#FF2B40"/>
<stop offset="1" stop-color="#FFB0A5"/>
</linearGradient>
<linearGradient id="paint6_linear_736_7927" x1="63.6862" y1="47.7897" x2="67.7272" y2="-3.73759" gradientUnits="userSpaceOnUse">
<stop stop-color="#FF2B40"/>
<stop offset="1" stop-color="#FFB0A5"/>
</linearGradient>
<linearGradient id="paint7_linear_736_7927" x1="63.6862" y1="47.7897" x2="67.7272" y2="-3.73759" gradientUnits="userSpaceOnUse">
<stop stop-color="#FF2B40"/>
<stop offset="1" stop-color="#FFB0A5"/>
</linearGradient>
<linearGradient id="paint8_linear_736_7927" x1="100.06" y1="34.3925" x2="102.988" y2="-3.08352" gradientUnits="userSpaceOnUse">
<stop stop-color="#FF2B40"/>
<stop offset="1" stop-color="#FFB0A5"/>
</linearGradient>
<linearGradient id="paint9_linear_736_7927" x1="103.537" y1="10.3828" x2="104.08" y2="-0.424542" gradientUnits="userSpaceOnUse">
<stop stop-color="#FF2B40"/>
<stop offset="1" stop-color="#FFB0A5"/>
</linearGradient>
<linearGradient id="paint10_linear_736_7927" x1="107.425" y1="47.7897" x2="111.465" y2="-3.73759" gradientUnits="userSpaceOnUse">
<stop stop-color="#FF2B40"/>
<stop offset="1" stop-color="#FFB0A5"/>
</linearGradient>
<linearGradient id="paint11_linear_736_7927" x1="107.425" y1="47.7897" x2="111.465" y2="-3.73759" gradientUnits="userSpaceOnUse">
<stop stop-color="#FF2B40"/>
<stop offset="1" stop-color="#FFB0A5"/>
</linearGradient>
</defs>
</svg>
