<svg width="24" height="24" viewBox="0 0 32 32" fill="none" xmlns="http://www.w3.org/2000/svg">
<g clip-path="url(#clip0_970_49740)">
<path fill-rule="evenodd" clip-rule="evenodd" d="M17.3333 0H12V2.66667H14.6667V5.33333H17.3333V2.66667V0ZM5.33333 5.33333H10.6667V8V10.6667H8V8H5.33333V5.33333ZM8 13.3333H24V16H8V13.3333ZM5.33333 18.6667V16H8V18.6667H5.33333ZM2.66667 21.3333H5.33333V18.6667H2.66667V21.3333ZM2.66667 24H0V21.3333H2.66667V24ZM29.3333 24V26.6667V32H26.6667V26.6667H5.33333V32H2.66667V26.6667V24H29.3333ZM29.3333 21.3333H32V24H29.3333V21.3333ZM26.6667 18.6667H29.3333V21.3333H26.6667V18.6667ZM26.6667 18.6667V16H24V18.6667H26.6667ZM21.3333 18.6667H10.6667V21.3333H21.3333V18.6667ZM18.6667 5.33333H24V8V10.6667H21.3333V8H18.6667V5.33333Z" fill="inherit"/>
</g>
<defs>
<clipPath id="clip0_970_49740">
<rect width="32" height="32" fill="inherit"/>
</clipPath>
</defs>
</svg>
