<svg width="24" height="24" viewBox="0 0 24 24" fill="none" xmlns="http://www.w3.org/2000/svg">
<g clip-path="url(#clip0_984_16343)">
<path fill-rule="evenodd" clip-rule="evenodd" d="M16 0H18V2H16V0ZM20 4H18V2H20V4ZM22 6V4H20V6H10V8H20V10H18V12H16V14H18V12H20V10H22V8H24V6H22ZM22 6V8H20V6H22ZM4 20H2L2 18H4V20ZM6 22H4V20H6V22ZM6 22H8V24H6V22ZM4 16H14V18H4V16ZM4 14V16H2V14H4ZM6 12V14H4V12H6ZM6 12V10H8V12H6ZM2 16V18H0V16H2Z" fill="#75797E"/>
</g>
<defs>
<clipPath id="clip0_984_16343">
<rect width="24" height="24" fill="white"/>
</clipPath>
</defs>
</svg>
