<svg width="24" height="25" viewBox="0 0 24 25" fill="none" xmlns="http://www.w3.org/2000/svg">
<g clip-path="url(#clip0_1013_13717)">
<path fill-rule="evenodd" clip-rule="evenodd" d="M22 0.5H2V2.5H0V22.5H2V24.5H22V22.5H24V2.5H22V0.5ZM22 2.5H20V22.5H22V2.5ZM18 10.5V22.5H2V2.5H18V8.5H16V10.5H14V12.5H12V14.5H10V16.5H8V14.5H6V12.5H4V14.5H6V16.5H8V18.5H10V16.5H12V14.5H14V12.5H16V10.5H18Z" fill="#15191B"/>
</g>
<defs>
<clipPath id="clip0_1013_13717">
<rect width="24" height="24" fill="white" transform="translate(0 0.5)"/>
</clipPath>
</defs>
</svg>
