<svg width="107" height="107" viewBox="0 0 107 107" fill="none" xmlns="http://www.w3.org/2000/svg">
<rect width="107" height="107" rx="53.5" fill="#15191B"/>
<path fill-rule="evenodd" clip-rule="evenodd" d="M51.6667 25H49.3333V33.1667H44.6667V30.8333H42.3333V28.5H33V30.8333H30.6667V33.1667H28.3333V35.5H26V37.8333H28.3333V40.1667H42.3333V37.8333H44.6667V35.5H49.3333V43.6667H47V46H44.6667V50.6667H33V53H30.6667V55.3333H28.3333V57.6667H26V71.6667H28.3333V74H30.6667V76.3333H33V78.6667H44.6667V76.3333H47V74H49.3333V71.6667H51.6667V55.3333H49.3333V53H47V46H49.3333V43.6667H51.6667V32H56.3333V34.3333H58.6667V36.6667H61V46H63.3333V48.3333H65.6667V53H62.1667V55.3333H59.8333V57.6667H57.5V60H55.1667V74H57.5V76.3333H59.8333V78.6667H62.1667V81H73.8333V78.6667H76.1667V76.3333H78.5V74H80.8333V60H78.5V57.6667H76.1667V55.3333H73.8333V53H68V48.3333H65.6667V46H63.3333V36.6667H61V34.3333H58.6667V32H56.3333V29.6667H51.6667V25ZM73.8333 55.3333V57.6667H76.1667V60H78.5V74H76.1667V76.3333H73.8333V78.6667H62.1667V76.3333H59.8333V74H57.5V60H59.8333V57.6667H62.1667V55.3333H73.8333ZM47 53H44.6667H33V55.3333H30.6667V57.6667H28.3333V71.6667H30.6667V74H33V76.3333H44.6667V74H47V71.6667H49.3333V55.3333H47V53ZM44.6667 35.5H42.3333V37.8333H28.3333V35.5H30.6667V33.1667H33V30.8333H42.3333V33.1667H44.6667V35.5Z" fill="white"/>
<path d="M42.3333 30.8334H32.9999V33.1667H30.6666V35.5H28.3333V37.8334H42.3333V35.5H44.6666V33.1667H42.3333V30.8334Z" fill="#B5FFE0"/>
<path d="M46.9999 53H32.9999V55.3333H30.6666V57.6667H28.3333V71.6667H30.6666V74H32.9999V76.3333H44.6666V74H46.9999V71.6667H49.3333V55.3333H46.9999V53Z" fill="url(#paint0_linear_836_61653)"/>
<path d="M73.8333 55.3333H62.1667V57.6666H59.8333V60H57.5V74H59.8333V76.3333H62.1667V78.6666H73.8333V76.3333H76.1667V74H78.5V60H76.1667V57.6666H73.8333V55.3333Z" fill="url(#paint1_linear_836_61653)"/>
<path fill-rule="evenodd" clip-rule="evenodd" d="M42.3333 55.3333H40V57.6666H42.3333V62.3333H44.6667V64.6666H47V62.3333H44.6667V57.6666H42.3333V55.3333ZM71.5 57.6666H69.1667V60H71.5V64.6666H73.8333V67H76.1667V64.6666H73.8333V60H71.5V57.6666Z" fill="white"/>
<defs>
<linearGradient id="paint0_linear_836_61653" x1="37.2632" y1="78.0779" x2="39.3205" y2="50.7396" gradientUnits="userSpaceOnUse">
<stop stop-color="#FF2B40"/>
<stop offset="1" stop-color="#FFB0A5"/>
</linearGradient>
<linearGradient id="paint1_linear_836_61653" x1="66.4299" y1="80.4112" x2="68.4872" y2="53.0729" gradientUnits="userSpaceOnUse">
<stop stop-color="#FF2B40"/>
<stop offset="1" stop-color="#FFB0A5"/>
</linearGradient>
</defs>
</svg>
