<svg width="1440" height="139" viewBox="0 0 1440 139" fill="none" xmlns="http://www.w3.org/2000/svg">
<g clip-path="url(#clip0_798_51300)">
<rect width="1440" height="139" fill="#15191B"/>
<rect x="1295" y="99" width="16" height="40" fill="#373A3E"/>
<rect x="1345" y="99" width="16" height="40" fill="#373A3E"/>
<rect x="1394" y="78" width="16" height="60" fill="#373A3E"/>
<rect x="1206" y="115" width="16" height="24" fill="#373A3E"/>
<rect x="1168" y="115" width="16" height="24" fill="#373A3E"/>
<rect x="1106" y="79" width="16" height="60" fill="#373A3E"/>
<rect x="888" y="83" width="16" height="58" fill="#373A3E"/>
<rect x="92" y="99" width="16" height="40" fill="#373A3E"/>
<rect x="108" y="83" width="32" height="16" fill="#373A3E"/>
<rect x="140" y="67" width="16" height="16" fill="#373A3E"/>
<rect x="44" y="67" width="16" height="16" fill="#373A3E"/>
<rect x="108" y="67" width="16" height="16" fill="#373A3E"/>
<rect x="124" y="51" width="16" height="16" fill="#373A3E"/>
<rect x="76" y="83" width="16" height="16" fill="#373A3E"/>
<rect x="60" y="51" width="16" height="32" fill="#373A3E"/>
<rect x="196" y="99" width="16" height="40" fill="#373A3E"/>
<rect x="212" y="83" width="16" height="16" fill="#373A3E"/>
<rect x="156" y="83" width="16" height="16" fill="#373A3E"/>
<rect x="172" y="67" width="16" height="16" fill="#373A3E"/>
<rect x="156" y="51" width="16" height="16" fill="#373A3E"/>
<rect x="172" y="99" width="24" height="16" fill="#373A3E"/>
<rect x="228" y="67" width="16" height="16" fill="#373A3E"/>
<rect x="1246" y="99" width="16" height="40" fill="#373A3E"/>
<rect x="1262" y="83" width="16" height="16" fill="#373A3E"/>
<rect x="1206" y="83" width="16" height="16" fill="#373A3E"/>
<rect x="1222" y="67" width="16" height="16" fill="#373A3E"/>
<rect x="1206" y="51" width="16" height="16" fill="#373A3E"/>
<rect x="1222" y="99" width="24" height="16" fill="#373A3E"/>
<rect x="784" y="99" width="16" height="40" fill="#373A3E"/>
<rect x="800" y="83" width="16" height="16" fill="#373A3E"/>
<rect x="744" y="83" width="16" height="16" fill="#373A3E"/>
<rect x="760" y="67" width="16" height="16" fill="#373A3E"/>
<rect x="744" y="51" width="16" height="16" fill="#373A3E"/>
<rect x="760" y="99" width="24" height="16" fill="#373A3E"/>
<rect width="16" height="40" transform="matrix(-1 0 0 1 848 99)" fill="#373A3E"/>
<rect width="16" height="16" transform="matrix(-1 0 0 1 832 83)" fill="#373A3E"/>
<rect width="16" height="16" transform="matrix(-1 0 0 1 888 83)" fill="#373A3E"/>
<rect width="16" height="16" transform="matrix(-1 0 0 1 872 67)" fill="#373A3E"/>
<rect width="16" height="16" transform="matrix(-1 0 0 1 888 51)" fill="#373A3E"/>
<rect width="24" height="16" transform="matrix(-1 0 0 1 872 99)" fill="#373A3E"/>
<rect x="1152" y="99" width="16" height="16" fill="#373A3E"/>
<rect x="1136" y="83" width="16" height="16" fill="#373A3E"/>
<rect x="1152" y="67" width="16" height="16" fill="#373A3E"/>
<rect x="1168" y="51" width="16" height="16" fill="#373A3E"/>
<rect x="1152" y="35" width="16" height="16" fill="#373A3E"/>
<rect x="1136" y="35" width="16" height="16" fill="#373A3E"/>
<rect x="472" y="67" width="16" height="72" fill="#373A3E"/>
<rect x="456" y="99" width="16" height="16" fill="#373A3E"/>
<rect x="488" y="78" width="16" height="16" fill="#373A3E"/>
<rect x="440" y="67" width="16" height="32" fill="#373A3E"/>
<rect x="504" y="46" width="16" height="32" fill="#373A3E"/>
<rect x="520" y="46" width="16" height="16" fill="#373A3E"/>
<rect x="504" y="94" width="16" height="16" fill="#373A3E"/>
<rect x="424" y="51" width="16" height="16" fill="#373A3E"/>
<rect x="440" y="35" width="16" height="16" fill="#373A3E"/>
<rect x="568" y="67" width="16" height="72" fill="#373A3E"/>
<rect x="552" y="99" width="16" height="16" fill="#373A3E"/>
<rect x="584" y="78" width="16" height="16" fill="#373A3E"/>
<rect x="536" y="67" width="16" height="32" fill="#373A3E"/>
<rect x="600" y="46" width="16" height="32" fill="#373A3E"/>
<rect x="616" y="46" width="16" height="16" fill="#373A3E"/>
<rect x="600" y="94" width="16" height="16" fill="#373A3E"/>
<rect x="520" y="51" width="16" height="16" fill="#373A3E"/>
<rect x="536" y="35" width="16" height="16" fill="#373A3E"/>
<rect width="16" height="72" transform="matrix(-1 0 0 1 1058 67)" fill="#373A3E"/>
<rect width="16" height="16" transform="matrix(-1 0 0 1 1074 99)" fill="#373A3E"/>
<rect width="16" height="16" transform="matrix(-1 0 0 1 1042 78)" fill="#373A3E"/>
<rect width="16" height="32" transform="matrix(-1 0 0 1 1090 67)" fill="#373A3E"/>
<rect width="16" height="32" transform="matrix(-1 0 0 1 1026 46)" fill="#373A3E"/>
<rect width="16" height="16" transform="matrix(-1 0 0 1 1010 46)" fill="#373A3E"/>
<rect width="16" height="16" transform="matrix(-1 0 0 1 1026 94)" fill="#373A3E"/>
<rect width="16" height="16" transform="matrix(-1 0 0 1 1106 51)" fill="#373A3E"/>
<rect width="16" height="16" transform="matrix(-1 0 0 1 1090 35)" fill="#373A3E"/>
<rect width="16" height="72" transform="matrix(-1 0 0 1 968 67)" fill="#373A3E"/>
<rect width="16" height="16" transform="matrix(-1 0 0 1 984 99)" fill="#373A3E"/>
<rect width="16" height="16" transform="matrix(-1 0 0 1 952 78)" fill="#373A3E"/>
<rect width="16" height="16" transform="matrix(-1 0 0 1 936 62)" fill="#373A3E"/>
<rect width="16" height="16" transform="matrix(-1 0 0 1 920 46)" fill="#373A3E"/>
<rect width="16" height="16" transform="matrix(-1 0 0 1 936 94)" fill="#373A3E"/>
<rect x="320" y="99" width="16" height="40" fill="#373A3E"/>
<rect x="272" y="115" width="16" height="24" fill="#373A3E"/>
<rect x="28" y="115" width="16" height="24" fill="#373A3E"/>
<rect x="384" y="83" width="16" height="56" fill="#373A3E"/>
<rect x="424" y="115" width="16" height="24" fill="#373A3E"/>
<rect x="244" y="94" width="16" height="45" fill="#373A3E"/>
<rect x="272" y="51" width="16" height="16" fill="#373A3E"/>
<rect x="304" y="83" width="16" height="16" fill="#373A3E"/>
<rect x="336" y="83" width="16" height="16" fill="#373A3E"/>
<rect x="352" y="67" width="16" height="16" fill="#373A3E"/>
<rect x="352" y="51" width="16" height="16" fill="#373A3E"/>
<rect x="336" y="35" width="16" height="16" fill="#373A3E"/>
<rect x="368" y="67" width="16" height="16" fill="#373A3E"/>
<rect x="288" y="67" width="16" height="16" fill="#373A3E"/>
<rect x="664" y="99" width="16" height="40" fill="#373A3E"/>
<rect x="616" y="51" width="16" height="16" fill="#373A3E"/>
<rect x="648" y="83" width="16" height="16" fill="#373A3E"/>
<rect x="680" y="83" width="16" height="16" fill="#373A3E"/>
<rect x="696" y="99" width="16" height="16" fill="#373A3E"/>
<rect x="712" y="83" width="16" height="16" fill="#373A3E"/>
<rect x="696" y="67" width="16" height="16" fill="#373A3E"/>
<rect x="696" y="51" width="16" height="16" fill="#373A3E"/>
<rect x="680" y="35" width="16" height="16" fill="#373A3E"/>
<rect x="712" y="67" width="16" height="16" fill="#373A3E"/>
<rect x="728" y="67" width="16" height="16" fill="#373A3E"/>
<rect x="600" y="35" width="16" height="16" fill="#373A3E"/>
<rect x="632" y="67" width="16" height="16" fill="#373A3E"/>
<rect x="1329" y="83" width="16" height="16" fill="#373A3E"/>
<rect x="1345" y="67" width="16" height="16" fill="#373A3E"/>
<rect x="1329" y="51" width="16" height="16" fill="#373A3E"/>
<rect x="1345" y="35" width="16" height="16" fill="#373A3E"/>
<rect x="1361" y="51" width="16" height="16" fill="#373A3E"/>
<rect x="1377" y="51" width="16" height="16" fill="#373A3E"/>
<rect x="1393" y="35" width="16" height="16" fill="#373A3E"/>
<rect x="1361" y="111" width="16" height="16" fill="#373A3E"/>
<rect x="1329" y="123" width="16" height="16" fill="#373A3E"/>
</g>
<defs>
<clipPath id="clip0_798_51300">
<rect width="1440" height="139" fill="white"/>
</clipPath>
</defs>
</svg>
